<?xml version="1.0" encoding="UTF-8"?>
<svg id="Layer_1" xmlns="http://www.w3.org/2000/svg" version="1.1" viewBox="0 0 1728.7 207.8">
  <!-- Generator: Adobe Illustrator 29.1.0, SVG Export Plug-In . SVG Version: 2.1.0 Build 142)  -->
  <g>
    <path d="M109,108.8v71.4h-7.6v-70.4c0-19.6-14.1-33.5-34.1-33.5s-34.8,14.3-34.8,34.3v69.5h-7.6v-108.9h7.6v19c5.5-13.1,18.7-21.5,35.8-21.5s40.7,16.6,40.7,40"/>
    <path d="M238.8,125.7c0-26.7-22.3-49.3-48.7-49.3s-48.9,22.5-48.9,49.3,22.3,49.5,48.9,49.5,48.7-22.5,48.7-49.5M133.7,125.7c0-31,25.9-56.9,56.4-56.9s56.2,25.9,56.2,56.9-25.7,57.1-56.2,57.1-56.4-26.1-56.4-57.1"/>
    <path d="M322.2,68.8v7.6c-24.6,0-42.1,17.9-42.1,43v60.9h-7.6v-108.9h7.6v24.9c4.6-15.4,22.1-27.4,42.1-27.4"/>
    <path d="M429.9,125.7c0-28.9-17.3-49.3-41.5-49.3s-42.8,22.5-42.8,49.3,19.6,49.5,42.8,49.5,41.5-20.4,41.5-49.5M437.4,33v147.2h-7.6v-22.8c-8.6,15.6-24,25.3-43,25.3s-48.9-26.1-48.9-57.1,22.3-56.9,48.9-56.9,34.3,9.7,43,25.3v-61.1h7.6Z"/>
  </g>
  <rect x="469.2" y="71.3" width="7.6" height="108.9"/>
  <g>
    <path d="M501.3,125.7c0-33.3,22.5-56.9,54.3-56.9s27.6,6.1,37.3,16l-5.5,5.3c-8.2-8.4-19.6-13.7-31.8-13.7-27.4,0-46.8,20.4-46.8,49.3s19.4,49.5,46.8,49.5,23.6-5.3,32-13.7l5.3,5.3c-9.7,9.9-23,16-37.3,16-31.8,0-54.3-23.6-54.3-57.1"/>
    <path d="M726.4,68.8v7.6c-24.6,0-42.1,17.9-42.1,43v60.9h-7.6v-108.9h7.6v24.9c4.6-15.4,22.1-27.4,42.1-27.4"/>
    <path d="M748.8,121.7h89.9c-1.3-27.2-18.5-45.3-44.2-45.3s-44,19.8-45.7,45.3M834.7,160.2l5.3,5.7c-9.1,9.9-28,16.9-45.5,16.9-29.1,0-53.5-26.1-53.5-57.3s23.6-56.7,53.5-56.7,51.8,24.2,51.8,60.5h-97.5c1.7,25.3,22.1,45.9,45.7,45.9s31.2-5.1,40.2-15"/>
    <path d="M889.3,56.4v15h30.5v7.6h-30.5v101.3h-7.6v-101.3h-19.2v-7.6h19.2v-15c0-16.2,9.3-27.8,22.3-27.8s14.3,2.3,20.2,6.9l-4.2,5.9c-4.2-3.6-9.3-5.3-15.6-5.3s-15.2,8.4-15.2,20.2"/>
  </g>
  <rect x="941.1" y="33" width="7.6" height="147.2"/>
  <g>
    <path d="M981.1,121.7h89.9c-1.3-27.2-18.5-45.3-44.2-45.3s-44,19.8-45.7,45.3M1067,160.2l5.3,5.7c-9.1,9.9-28,16.9-45.5,16.9-29.1,0-53.5-26.1-53.5-57.3s23.6-56.7,53.5-56.7,51.8,24.2,51.8,60.5h-97.5c1.7,25.3,22.1,45.9,45.7,45.9s31.2-5.1,40.2-15"/>
    <path d="M1097.2,125.7c0-33.3,22.5-56.9,54.3-56.9s27.6,6.1,37.3,16l-5.5,5.3c-8.2-8.4-19.6-13.7-31.8-13.7-27.4,0-46.8,20.4-46.8,49.3s19.4,49.5,46.8,49.5,23.6-5.3,32-13.7l5.3,5.3c-9.7,9.9-23,16-37.3,16-31.8,0-54.3-23.6-54.3-57.1"/>
    <path d="M1265,175.8c-5.7,4.4-13.1,7-20.2,7-13.1,0-22.3-11.6-22.3-27.8v-76h-19.2v-7.6h19.2v-29.9h7.6v29.9h28.6v7.6h-28.6v76c0,11.8,6.3,20.2,15.2,20.2s11.2-2.1,15.6-5.5l4.2,6.1Z"/>
  </g>
  <rect x="1285.7" y="71.3" width="7.6" height="108.9"/>
  <g>
    <path d="M1422.8,125.7c0-26.7-22.3-49.3-48.7-49.3s-48.9,22.5-48.9,49.3,22.3,49.5,48.9,49.5,48.7-22.5,48.7-49.5M1317.7,125.7c0-31,25.9-56.9,56.5-56.9s56.2,25.9,56.2,56.9-25.7,57.1-56.2,57.1-56.5-26.1-56.5-57.1"/>
    <path d="M1539.3,108.8v71.4h-7.6v-70.4c0-19.6-14.1-33.5-34.1-33.5s-34.8,14.3-34.8,34.3v69.5h-7.6v-108.9h7.6v19c5.5-13.1,18.7-21.5,35.8-21.5s40.7,16.6,40.7,40"/>
    <path d="M1563.3,166.5l4.6-5.9c12.6,9.1,27.6,14.5,40.4,14.5s30.1-9.3,30.1-20.2-9.1-19.8-31.6-26.8c-25.9-8-36.2-17.1-36.2-31.6s16.4-27.8,36-27.8,27.2,4.6,39,12.2l-4.6,5.9c-10.5-6.5-23.2-10.5-34.3-10.5s-28.4,8.8-28.4,19.4,9.3,18.3,32.4,25.7c25.3,8,35.4,17.3,35.4,32.7s-17.3,28.6-37.7,28.6-32.4-6.1-45.1-16.2"/>
    <path d="M1679.1,28.6c-15.9.7-24.7,18.8-15.5,31.8,8.2,11.7,25.8,11.1,33.4-.9,8.7-13.7-1.7-31.6-17.9-30.9M1679.2,25.9c18.6-.6,30.1,20.3,19.7,35.7-9.2,13.6-29.6,13.2-38.3-.7-9.4-15,1.1-34.4,18.7-35"/>
    <path d="M1679.1,28.6v-.9c-12,.5-20.1,10.5-20.1,21.1,0,4.1,1.2,8.3,3.9,12.1,4.2,5.9,10.6,8.8,17.1,8.8,6.8,0,13.7-3.3,17.8-9.8,2.3-3.6,3.3-7.4,3.3-11.1,0-11-8.8-21.1-21-21.1h-1s0,.9,0,.9v.9s.9,0,.9,0c11.1,0,19.2,9.3,19.2,19.4,0,3.4-.9,6.9-3,10.2-3.8,5.9-10,8.9-16.3,8.9s-11.8-2.7-15.6-8.1c-2.5-3.5-3.6-7.3-3.6-11.1,0-9.7,7.5-18.9,18.4-19.4v-.9ZM1679.2,25.9v.9s.8,0,.8,0c12.8,0,21.9,10.7,21.9,22.2,0,4.1-1.2,8.3-3.8,12.2-4.4,6.4-11.3,9.6-18.2,9.6-7.2,0-14.4-3.4-18.7-10.3-2.3-3.7-3.4-7.7-3.4-11.6,0-11.2,8.8-21.7,21.3-22.1v-.9s0-.9,0-.9c-13.5.5-23,11.7-23,23.9,0,4.2,1.1,8.5,3.6,12.5,4.6,7.4,12.4,11.1,20.2,11.1,7.5,0,15-3.4,19.7-10.4,2.8-4.2,4.1-8.7,4.1-13.2,0-12.4-9.9-23.9-23.7-23.9h-.9s0,.9,0,.9Z"/>
    <path d="M1675.9,48.4h6.8l1.5-.9c1.9-1.7,1.7-5.5-.6-6.7l-.9-.4h-6.8v8ZM1690.1,60.9h-4.2l-5.3-8.9h-4.5l-.3.3v8.6h-3.9v-24.3h11.4c.7,0,3,1.3,3.6,1.9,4.4,3.9,3,10.7-2.1,13.1l5.3,9.3Z"/>
  </g>
</svg>